<?xml version="1.0" encoding="iso-8859-1"?>
<!-- Generator: Adobe Illustrator 16.0.0, SVG Export Plug-In . SVG Version: 6.00 Build 0)  -->
<!DOCTYPE svg PUBLIC "-//W3C//DTD SVG 1.1//EN" "http://www.w3.org/Graphics/SVG/1.1/DTD/svg11.dtd">
<svg version="1.1" id="Capa_1" xmlns="http://www.w3.org/2000/svg" xmlns:xlink="http://www.w3.org/1999/xlink" x="0px" y="0px"
	 width="533.333px" height="533.333px" viewBox="0 0 533.333 533.333" style="enable-background:new 0 0 533.333 533.333;"
	 xml:space="preserve">
<g>
	<path d="M533.333,316.716V216.618l-76.444-12.74c-3.104-9.444-6.888-18.577-11.301-27.344l45.029-63.039l-70.779-70.781
		l-62.931,44.951c-8.807-4.456-17.987-8.275-27.482-11.408L316.715,0H216.618l-12.709,76.258
		c-9.495,3.132-18.676,6.952-27.482,11.408l-62.932-44.951l-70.78,70.781l45.028,63.04c-4.412,8.766-8.195,17.899-11.298,27.343
		L0,216.618v100.098l76.624,12.771c3.104,9.358,6.88,18.41,11.271,27.101l-45.181,63.254l70.78,70.779l63.362-45.258
		c8.646,4.349,17.651,8.088,26.96,11.163l12.801,76.808h100.098l12.801-76.81c9.312-3.076,18.313-6.814,26.962-11.162l63.36,45.257
		l70.779-70.779l-45.18-63.253c4.392-8.689,8.166-17.741,11.271-27.1L533.333,316.716z M266.667,333.333
		c-36.819,0-66.667-29.846-66.667-66.666C200,229.848,229.848,200,266.667,200c36.82,0,66.667,29.848,66.667,66.667
		C333.333,303.487,303.487,333.333,266.667,333.333z"/>
</g>
<g>
</g>
<g>
</g>
<g>
</g>
<g>
</g>
<g>
</g>
<g>
</g>
<g>
</g>
<g>
</g>
<g>
</g>
<g>
</g>
<g>
</g>
<g>
</g>
<g>
</g>
<g>
</g>
<g>
</g>
</svg>
